<svg viewBox="0 0 96 96" fill="none" xmlns="http://www.w3.org/2000/svg">
  <rect x="14.1" y="14.1" width="67.8" height="67.8" rx="7" transform="rotate(45 14.1 14.1)" stroke="currentColor" stroke-width="3.2" opacity="0.84" />
  <path d="M15 48C24.73 34.32 35.72 27.48 48 27.48C60.28 27.48 71.27 34.32 81 48C71.27 61.68 60.28 68.52 48 68.52C35.72 68.52 24.73 61.68 15 48Z" stroke="currentColor" stroke-width="3.1" opacity="0.94" />
  <path d="M25.95 48C32.96 38.82 40.31 34.23 48 34.23C55.69 34.23 63.04 38.82 70.05 48C63.04 57.18 55.69 61.77 48 61.77C40.31 61.77 32.96 57.18 25.95 48Z" stroke="currentColor" stroke-width="1.9" opacity="0.22" />
  <circle cx="48" cy="48" r="8.9" stroke="currentColor" stroke-width="2.2" opacity="0.18" />
  <path d="M47.9 17.4V28.2" stroke="currentColor" stroke-width="2.3" stroke-linecap="round" opacity="0.7" />
  <path d="M36.4 33.2L24.6 28.3" stroke="currentColor" stroke-width="2.05" stroke-linecap="round" opacity="0.26" />
  <path d="M59.6 33.2L71.4 28.3" stroke="currentColor" stroke-width="2.05" stroke-linecap="round" opacity="0.26" />
  <path d="M34.7 42.5L22.45 41.4" stroke="currentColor" stroke-width="1.8" stroke-linecap="round" opacity="0.18" />
  <path d="M61.3 42.5L73.55 41.4" stroke="currentColor" stroke-width="1.8" stroke-linecap="round" opacity="0.18" />
  <path d="M43.65 36.95L48 30.2L52.35 36.95" stroke="currentColor" stroke-width="2.5" stroke-linejoin="round" fill="currentColor" fill-opacity="0.04" />
  <path d="M42.9 36.95H53.1L55.5 65.35H40.5L42.9 36.95Z" stroke="currentColor" stroke-width="2.5" fill="currentColor" fill-opacity="0.04" />
  <path d="M41.45 65.35H54.55" stroke="currentColor" stroke-width="2.5" stroke-linecap="round" />
  <path d="M39.45 70.3H56.55" stroke="currentColor" stroke-width="2.5" stroke-linecap="round" />
  <path d="M48 36.95V65.35" stroke="currentColor" stroke-width="1.8" stroke-linecap="round" opacity="0.18" />
  <path d="M48 29.1L51.6 32.8L48 36.95L44.4 32.8L48 29.1Z" fill="currentColor" fill-opacity="0.18" stroke="currentColor" stroke-width="0.9" />
  <path d="M48 40.5L49.45 42L48 43.5L46.55 42L48 40.5Z" fill="currentColor" fill-opacity="0.56" />
</svg>
