<svg viewBox="0 0 48 48" fill="none" xmlns="http://www.w3.org/2000/svg">
  <defs>
    <linearGradient id="gem-gradient" x1="24" y1="15.2" x2="24" y2="22.8" gradientUnits="userSpaceOnUse">
      <stop stop-color="#DAC8FF" />
      <stop offset="0.48" stop-color="#A774FF" />
      <stop offset="1" stop-color="#6F44D9" />
    </linearGradient>
    <radialGradient id="iris-gradient" cx="0" cy="0" r="1" gradientUnits="userSpaceOnUse" gradientTransform="translate(24 24) rotate(90) scale(8.5)">
      <stop stop-color="#C6B1FF" stop-opacity="0.95" />
      <stop offset="1" stop-color="#A774FF" stop-opacity="0.1" />
    </radialGradient>
  </defs>
  <path d="M24 2.8L45.2 24L24 45.2L2.8 24L24 2.8Z" stroke="#241C36" stroke-width="1.75" opacity="0.82" />
  <path d="M7.25 24C12.18 17.08 17.72 13.62 24 13.62C30.28 13.62 35.82 17.08 40.75 24C35.82 30.92 30.28 34.38 24 34.38C17.72 34.38 12.18 30.92 7.25 24Z" stroke="#241C36" stroke-width="1.7" opacity="0.94" />
  <path d="M12.8 24C16.35 19.35 20.08 17.02 24 17.02C27.92 17.02 31.65 19.35 35.2 24C31.65 28.65 27.92 30.98 24 30.98C20.08 30.98 16.35 28.65 12.8 24Z" stroke="#241C36" stroke-width="1.05" opacity="0.28" />
  <circle cx="24" cy="24" r="4.3" stroke="url(#iris-gradient)" stroke-width="1.2" opacity="0.9" />
  <path d="M23.95 8.8V15.2" stroke="#241C36" stroke-width="1.25" stroke-linecap="round" opacity="0.72" />
  <path d="M17.15 18.1L10.2 15.25" stroke="#241C36" stroke-width="1.15" stroke-linecap="round" opacity="0.3" />
  <path d="M30.85 18.1L37.8 15.25" stroke="#241C36" stroke-width="1.15" stroke-linecap="round" opacity="0.3" />
  <path d="M16.15 23.45L8.95 22.8" stroke="#241C36" stroke-width="1.05" stroke-linecap="round" opacity="0.22" />
  <path d="M31.85 23.45L39.05 22.8" stroke="#241C36" stroke-width="1.05" stroke-linecap="round" opacity="0.22" />
  <path d="M21.4 20.2L24 16.15L26.6 20.2" stroke="#241C36" stroke-width="1.45" stroke-linejoin="round" fill="#241C36" fill-opacity="0.06" />
  <path d="M20.95 20.2H27.05L28.45 37.2H19.55L20.95 20.2Z" stroke="#241C36" stroke-width="1.45" fill="#241C36" fill-opacity="0.07" />
  <path d="M20.1 37.2H27.9" stroke="#241C36" stroke-width="1.45" stroke-linecap="round" />
  <path d="M18.9 40.15H29.1" stroke="#241C36" stroke-width="1.45" stroke-linecap="round" />
  <path d="M24 20.2V37.2" stroke="#241C36" stroke-width="1.1" stroke-linecap="round" opacity="0.22" />
  <path d="M24 15.5L26.2 17.75L24 20.2L21.8 17.75L24 15.5Z" fill="url(#gem-gradient)" stroke="#E6DAFF" stroke-width="0.5" />
  <path d="M24 22.25L24.9 23.2L24 24.15L23.1 23.2L24 22.25Z" fill="#C8A55A" fill-opacity="0.85" />
</svg>
